# xmcd
#
# Track frame offsets: 
#        150
#        17747
#        39460
#        60995
#        74382
#        90752
#        113772
#        128822
#        149860
#        162242
#        177117
#        192055
#        207885
#        227302
#
# Disc length: 3266 seconds
#
# Revision: 0
# Processed by: cddbd v1.4PL0 Copyright (c) Steve Scherf et al.
# Submitted via: ExactAudioCopy v0.95a3
#
DISCID=b10cc00e
DTITLE=Clarisse - Novos tracos
DYEAR=1992
DGENRE=MPB
TTITLE0=Cravo e Ferradura
TTITLE1=A Gente Chega La...
TTITLE2=Soneto em Blue
TTITLE3=Um Avo Pefelino
TTITLE4=Varanda (Olhar n. 1)
TTITLE5=Dores Dolores
TTITLE6=Nao Tava Pra Peixe
TTITLE7=Nordeste Carioca
TTITLE8=Cancao Maritima, Letra de Fado (Olhar n.2)
TTITLE9=50 anos
TTITLE10=Grande Othelo
TTITLE11=Esquizovalsa (Olhar n. 3)
TTITLE12=Enseada
TTITLE13=Acalanto pros Netos
EXTD=
EXTT0=
EXTT1=
EXTT2=
EXTT3=
EXTT4=
EXTT5=
EXTT6=
EXTT7=
EXTT8=
EXTT9=
EXTT10=
EXTT11=
EXTT12=
EXTT13=
PLAYORDER=
